<mxfile host="Electron" agent="Mozilla/5.0 (Macintosh; Intel Mac OS X 10_15_7) AppleWebKit/537.36 (KHTML, like Gecko) draw.io/28.1.2 Chrome/138.0.7204.243 Electron/37.4.0 Safari/537.36" version="28.1.2">
  <diagram id="Flow" name="Flow">
    <mxGraphModel dx="1506" dy="1028" grid="1" gridSize="10" guides="1" tooltips="1" connect="1" arrows="1" fold="1" page="1" pageScale="1" pageWidth="827" pageHeight="1169" math="0" shadow="0">
      <root>
        <mxCell id="0" />
        <mxCell id="1" parent="0" />
        <mxCell id="101" value="login" style="swimlane;rounded=1;fillColor=#111827;fontColor=#E5E7EB;" parent="1" vertex="1">
          <mxGeometry x="10" y="50" width="1000" height="600" as="geometry" />
        </mxCell>
        <mxCell id="102" value="__init__()" style="rounded=1;whiteSpace=wrap;html=1;fillColor=#1F2937;strokeColor=#93C5FD;fontColor=#E5E7EB;" parent="101" vertex="1">
          <mxGeometry x="90" y="160" width="180" height="54" as="geometry" />
        </mxCell>
        <mxCell id="103" value="_on_login()" style="rounded=1;whiteSpace=wrap;html=1;fillColor=#1F2937;strokeColor=#93C5FD;fontColor=#E5E7EB;" parent="101" vertex="1">
          <mxGeometry x="390" y="40" width="180" height="54" as="geometry" />
        </mxCell>
        <mxCell id="104" value="build()" style="rounded=1;whiteSpace=wrap;html=1;fillColor=#1F2937;strokeColor=#93C5FD;fontColor=#E5E7EB;" parent="101" vertex="1">
          <mxGeometry x="700" y="160" width="180" height="54" as="geometry" />
        </mxCell>
        <mxCell id="105" value="on_start()" style="rounded=1;whiteSpace=wrap;html=1;fillColor=#1F2937;strokeColor=#93C5FD;fontColor=#E5E7EB;" parent="101" vertex="1">
          <mxGeometry x="90" y="276" width="180" height="54" as="geometry" />
        </mxCell>
        <mxCell id="106" value="__init__()" style="rounded=1;whiteSpace=wrap;html=1;fillColor=#1F2937;strokeColor=#93C5FD;fontColor=#E5E7EB;" parent="101" vertex="1">
          <mxGeometry x="390" y="276" width="180" height="54" as="geometry" />
        </mxCell>
        <mxCell id="107" value="_update_rect()" style="rounded=1;whiteSpace=wrap;html=1;fillColor=#1F2937;strokeColor=#93C5FD;fontColor=#E5E7EB;" parent="101" vertex="1">
          <mxGeometry x="700" y="276" width="180" height="54" as="geometry" />
        </mxCell>
        <mxCell id="108" value="__init__()" style="rounded=1;whiteSpace=wrap;html=1;fillColor=#1F2937;strokeColor=#93C5FD;fontColor=#E5E7EB;" parent="101" vertex="1">
          <mxGeometry x="90" y="390" width="180" height="54" as="geometry" />
        </mxCell>
        <mxCell id="109" value="_update_bg()" style="rounded=1;whiteSpace=wrap;html=1;fillColor=#1F2937;strokeColor=#93C5FD;fontColor=#E5E7EB;" parent="101" vertex="1">
          <mxGeometry x="700" y="390" width="180" height="54" as="geometry" />
        </mxCell>
        <mxCell id="110" value="focus()" style="rounded=1;whiteSpace=wrap;html=1;fillColor=#1F2937;strokeColor=#93C5FD;fontColor=#E5E7EB;" parent="101" vertex="1">
          <mxGeometry x="700" y="508" width="180" height="54" as="geometry" />
        </mxCell>
        <mxCell id="111" value="text()" style="rounded=1;whiteSpace=wrap;html=1;fillColor=#1F2937;strokeColor=#93C5FD;fontColor=#E5E7EB;" parent="101" vertex="1">
          <mxGeometry x="90" y="507.5" width="180" height="54" as="geometry" />
        </mxCell>
        <mxCell id="112" value="check_password()" style="rounded=1;whiteSpace=wrap;html=1;fillColor=#1F2937;strokeColor=#93C5FD;fontColor=#E5E7EB;" parent="101" vertex="1">
          <mxGeometry x="390" y="160" width="180" height="54" as="geometry" />
        </mxCell>
        <mxCell id="113" value="fetch_password_hash()" style="rounded=1;whiteSpace=wrap;html=1;fillColor=#FCA5A5;strokeColor=#7F1D1D;fontColor=#E5E7EB;" parent="101" vertex="1">
          <mxGeometry x="700" y="40" width="180" height="54" as="geometry" />
        </mxCell>
        <mxCell id="114" value="DATASOURCES" style="swimlane;rounded=1;fillColor=#111827;fontColor=#E5E7EB;" parent="1" vertex="1">
          <mxGeometry x="1160" y="40" width="500" height="600" as="geometry" />
        </mxCell>
        <mxCell id="115" value="DB: DB" style="ellipse;whiteSpace=wrap;fillColor=#FCA5A5;strokeColor=#7F1D1D;fontColor=#E5E7EB;" parent="114" vertex="1">
          <mxGeometry x="40" y="40" width="200" height="70" as="geometry" />
        </mxCell>
        <mxCell id="116" style="endArrow=block;rounded=1;jettySize=auto;edgeStyle=orthogonalEdgeStyle;orthogonalLoop=1;jumpStyle=arc;jumpSize=8;strokeColor=#93C5FD;" parent="1" source="103" target="112" edge="1">
          <mxGeometry relative="1" as="geometry" />
        </mxCell>
        <mxCell id="117" style="endArrow=block;rounded=1;jettySize=auto;edgeStyle=orthogonalEdgeStyle;orthogonalLoop=1;jumpStyle=arc;jumpSize=8;strokeColor=#93C5FD;" parent="1" source="103" target="113" edge="1">
          <mxGeometry relative="1" as="geometry" />
        </mxCell>
        <mxCell id="118" value="SELECT" style="endArrow=block;rounded=1;jettySize=auto;edgeStyle=orthogonalEdgeStyle;orthogonalLoop=1;jumpStyle=arc;jumpSize=8;dashed=1;strokeColor=#FCA5A5;dashed=1;" parent="1" source="113" target="115" edge="1">
          <mxGeometry relative="1" as="geometry" />
        </mxCell>
        <mxCell id="119" value="SELECT" style="endArrow=block;rounded=1;jettySize=auto;edgeStyle=orthogonalEdgeStyle;orthogonalLoop=1;jumpStyle=arc;jumpSize=8;dashed=1;strokeColor=#FCA5A5;dashed=1;" parent="1" source="113" target="115" edge="1">
          <mxGeometry relative="1" as="geometry" />
        </mxCell>
        <mxCell id="120" value="Legend&#xa;• Node (red): touches DB&#xa;• Dashed edge: inter-module&#xa;• Style: midnight/orthogonal/block&#xa;• Generated: 2025-09-12 21:02:18" style="rounded=1;whiteSpace=wrap;html=1;fillColor=#334155;strokeColor=#93C5FD;fontColor=#E5E7EB;" parent="1" vertex="1">
          <mxGeometry x="790" y="740" width="340" height="110" as="geometry" />
        </mxCell>
      </root>
    </mxGraphModel>
  </diagram>
</mxfile>
